<?xml version="1.0" encoding="utf-8"?>
<!-- Generator: Adobe Illustrator 16.0.0, SVG Export Plug-In . SVG Version: 6.00 Build 0)  -->
<!DOCTYPE svg PUBLIC "-//W3C//DTD SVG 1.1//EN" "http://www.w3.org/Graphics/SVG/1.1/DTD/svg11.dtd">
<svg version="1.1" id="Layer_1" xmlns="http://www.w3.org/2000/svg" xmlns:xlink="http://www.w3.org/1999/xlink" x="0px" y="0px"
	 width="792px" height="218px" viewBox="0 0 792 218" enable-background="new 0 0 792 218" xml:space="preserve">
<g>
	<polygon fill-rule="evenodd" clip-rule="evenodd" fill="#25A9E1" points="191.094,162.115 191.083,19.821 119.804,90.818 	"/>
	<polygon fill-rule="evenodd" clip-rule="evenodd" fill="#0C547C" points="33.136,7.941 36.572,11.374 132.187,106.852 
		33.136,205.904 	"/>
	<path fill="#0C547C" d="M243.567,75.362h9.303v12.306c3.15-4.437,6.443-7.87,9.881-10.018c4.579-2.72,9.586-4.011,14.596-4.011
		c3.581,0,6.872,0.572,9.88,2.006c3.145,1.286,5.724,3.15,7.729,5.438c2.004,2.29,3.722,5.439,5.15,9.734
		c3.007-5.581,6.872-9.875,11.449-12.884c4.584-2.861,9.592-4.295,14.889-4.295c5.009,0,9.304,1.145,13.167,3.723
		c3.724,2.436,6.584,6.012,8.447,10.453c1.859,4.436,2.72,11.161,2.72,20.181v39.076h-9.449v-39.218
		c0-7.587-0.573-12.884-1.575-15.75c-1.145-2.861-3.004-5.15-5.724-7.009c-2.577-1.722-5.728-2.578-9.449-2.578
		c-4.436,0-8.585,1.286-12.166,4.006c-3.722,2.577-6.441,6.012-8.158,10.448c-1.716,4.441-2.577,11.738-2.577,22.045v28.056h-9.162
		v-36.787c0-8.589-0.573-14.459-1.718-17.604c-1.002-3.008-2.861-5.586-5.581-7.444c-2.72-1.863-5.868-2.72-9.592-2.72
		c-4.147,0-8.158,1.286-11.88,3.864c-3.718,2.578-6.438,6.012-8.3,10.306c-1.716,4.437-2.579,11.021-2.579,20.039v30.346h-9.303
		V75.362z M404.168,73.64c11.167,0,20.323,3.864,27.482,11.882c6.726,7.302,10.018,15.892,10.018,25.908
		c0,9.876-3.579,18.61-10.589,26.197c-6.872,7.439-15.893,11.161-26.911,11.161c-11.021,0-20.039-3.722-26.912-11.161
		c-7.009-7.587-10.59-16.321-10.59-26.197c0-9.875,3.292-18.606,10.018-25.762C383.845,77.65,393.147,73.64,404.168,73.64
		L404.168,73.64z M404.168,82.659c-7.729,0-14.171,2.72-19.752,8.447c-5.438,5.581-8.305,12.453-8.305,20.465
		c0,5.155,1.291,10.021,3.863,14.46c2.436,4.436,5.87,7.874,10.165,10.305c4.293,2.436,8.872,3.724,14.028,3.724
		c5.154,0,9.874-1.288,14.028-3.724c4.293-2.431,7.728-5.869,10.163-10.305c2.573-4.438,3.864-9.305,3.864-14.46
		c0-8.012-2.866-14.884-8.306-20.465C418.337,85.379,411.754,82.659,404.168,82.659L404.168,82.659z M530.127,47.735v99.337h-9.161
		v-12.453c-3.864,4.726-8.159,8.301-13.026,10.594c-4.726,2.431-10.017,3.575-15.744,3.575c-10.165,0-18.748-3.722-25.909-11.019
		c-7.156-7.303-10.731-16.317-10.731-26.771c0-10.305,3.575-19.178,10.878-26.48c7.155-7.298,15.887-10.879,26.051-10.879
		c5.864,0,11.161,1.145,15.887,3.723c4.866,2.436,9.015,6.3,12.596,11.309V47.735H530.127z M493.197,82.518
		c-5.156,0-9.874,1.286-14.169,3.723c-4.295,2.572-7.729,6.011-10.307,10.589c-2.577,4.584-3.864,9.45-3.864,14.459
		c0,5.008,1.287,9.875,3.864,14.459c2.577,4.577,6.012,8.158,10.447,10.731c4.295,2.436,9.021,3.722,14.028,3.722
		c5.01,0,9.734-1.145,14.312-3.722c4.436-2.573,7.875-6.012,10.306-10.307c2.437-4.295,3.722-9.161,3.722-14.601
		c0-8.3-2.72-15.173-8.157-20.753C507.799,85.237,501.214,82.518,493.197,82.518L493.197,82.518z M549.877,75.362h9.162v33.489
		c0,8.159,0.431,13.745,1.291,16.747c1.286,4.441,3.865,7.876,7.587,10.453c3.718,2.573,8.157,3.864,13.308,3.864
		s9.445-1.291,13.168-3.722c3.58-2.577,6.011-5.728,7.302-9.876c1.004-2.72,1.429-8.589,1.429-17.467V75.362h9.451v35.064
		c0,9.881-1.145,17.32-3.439,22.333c-2.29,5.01-5.722,8.873-10.447,11.735c-4.577,2.866-10.447,4.293-17.463,4.293
		c-6.872,0-12.736-1.427-17.46-4.293c-4.726-2.862-8.16-6.726-10.449-11.881c-2.293-5.01-3.438-12.597-3.438-22.76V75.362z
		 M633.038,75.362h9.162v12.306c3.291-4.437,6.583-7.87,10.022-10.018c4.577-2.72,9.445-4.011,14.6-4.011
		c3.575,0,6.868,0.572,9.876,2.006c3.149,1.286,5.722,3.15,7.728,5.438c2.005,2.29,3.723,5.439,5.155,9.734
		c3.004-5.581,6.868-9.875,11.451-12.884c4.577-2.861,9.587-4.295,14.884-4.295c5.009,0,9.304,1.145,13.167,3.723
		c3.722,2.436,6.585,6.012,8.447,10.453c1.859,4.436,2.72,11.161,2.72,20.181v39.076h-9.451v-39.218
		c0-7.587-0.571-12.884-1.569-15.75c-1.148-2.861-3.008-5.15-5.728-7.009c-2.577-1.722-5.728-2.578-9.445-2.578
		c-4.439,0-8.588,1.286-12.311,4.006c-3.58,2.577-6.3,6.012-8.017,10.448c-1.718,4.441-2.578,11.738-2.578,22.045v28.056h-9.156
		v-36.787c0-8.589-0.572-14.459-1.722-17.604c-0.999-3.008-2.861-5.586-5.581-7.444c-2.72-1.863-5.87-2.72-9.592-2.72
		c-4.29,0-8.158,1.286-11.876,3.864c-3.722,2.578-6.442,6.012-8.305,10.306c-1.718,4.437-2.72,11.021-2.72,20.039v30.346h-9.162
		V75.362z"/>
</g>
</svg>
