<?xml version="1.0" encoding="UTF-8" standalone="no"?>
<!-- Created with Inkscape (http://www.inkscape.org/) -->

<svg
   xmlns:dc="http://purl.org/dc/elements/1.1/"
   xmlns:cc="http://creativecommons.org/ns#"
   xmlns:rdf="http://www.w3.org/1999/02/22-rdf-syntax-ns#"
   xmlns:svg="http://www.w3.org/2000/svg"
   xmlns="http://www.w3.org/2000/svg"
   xmlns:sodipodi="http://sodipodi.sourceforge.net/DTD/sodipodi-0.dtd"
   xmlns:inkscape="http://www.inkscape.org/namespaces/inkscape"
   version="1.1"
   id="svg3714"
   xml:space="preserve"
   width="53.333332"
   height="53.333332"
   viewBox="0 0 53.333332 53.333332"
   sodipodi:docname="icon test for app-18.svg"
   inkscape:version="0.92.1 r15371"><metadata
     id="metadata3720"><rdf:RDF><cc:Work
         rdf:about=""><dc:format>image/svg+xml</dc:format><dc:type
           rdf:resource="http://purl.org/dc/dcmitype/StillImage" /><dc:title></dc:title></cc:Work></rdf:RDF></metadata><defs
     id="defs3718" /><sodipodi:namedview
     pagecolor="#ffffff"
     bordercolor="#666666"
     borderopacity="1"
     objecttolerance="10"
     gridtolerance="10"
     guidetolerance="10"
     inkscape:pageopacity="0"
     inkscape:pageshadow="2"
     inkscape:window-width="1920"
     inkscape:window-height="1003"
     id="namedview3716"
     showgrid="false"
     inkscape:zoom="15.1875"
     inkscape:cx="26.666666"
     inkscape:cy="26.666666"
     inkscape:window-x="-9"
     inkscape:window-y="-9"
     inkscape:window-maximized="1"
     inkscape:current-layer="g3722" /><g
     id="g3722"
     inkscape:groupmode="layer"
     inkscape:label="ink_ext_XXXXXX"
     transform="matrix(1.3333333,0,0,-1.3333333,0,53.333333)"><g
       id="g3724"
       transform="scale(0.1)"><path
         d="M 200.02,400 197.578,399.266 17.1875,314.93 c -1.4648,-0.965 -2.4414,-2.45 -2.4414,-4.395 V 98.9844 c 0,-1.9727 0.9766,-3.418 2.4414,-4.4141 L 197.578,0.480469 C 198.047,0 199.031,0 200.02,0 c 0.957,0 1.933,0 2.421,0.480469 L 382.82,94.5703 c 1.457,0.9961 2.422,2.4414 2.422,4.4141 V 310.535 c 0,1.945 -0.965,3.43 -2.422,4.395 L 202.441,399.266 200.02,400"
         style="fill:#48c092;fill-opacity:1;fill-rule:nonzero;stroke:none"
         id="path3726"
         inkscape:connector-curvature="0" /><path
         d="m 270.09,267.637 -89.848,-103.352 -51.375,51.406 -15.183,-15.164 68.203,-68.172 104.441,120.68 -16.238,14.602"
         style="fill:#ffffff;fill-opacity:1;fill-rule:nonzero;stroke:none"
         id="path3728"
         inkscape:connector-curvature="0" /><path
         d="m 270.09,267.637 -5.664,4.922 -84.567,-97.278 -50.992,51.02 -25.804,-25.754 79.218,-79.192 114.535,132.368 -27.386,24.597 -5.004,-5.761 5.664,-4.922 -5.016,-5.574 10.77,-9.68 -94.356,-109.016 -57.195,57.168 4.566,4.563 51.762,-51.797 95.125,109.426 -5.656,4.91 -5.016,-5.574 5.016,5.574"
         style="fill:#ffffff;fill-opacity:1;fill-rule:nonzero;stroke:none"
         id="path3730"
         inkscape:connector-curvature="0" /></g></g></svg>