<?xml version="1.0" encoding="UTF-8" standalone="no"?>
<!-- Created with Inkscape (http://www.inkscape.org/) -->

<svg
   xmlns:dc="http://purl.org/dc/elements/1.1/"
   xmlns:cc="http://creativecommons.org/ns#"
   xmlns:rdf="http://www.w3.org/1999/02/22-rdf-syntax-ns#"
   xmlns:svg="http://www.w3.org/2000/svg"
   xmlns="http://www.w3.org/2000/svg"
   xmlns:sodipodi="http://sodipodi.sourceforge.net/DTD/sodipodi-0.dtd"
   xmlns:inkscape="http://www.inkscape.org/namespaces/inkscape"
   version="1.1"
   id="svg3680"
   xml:space="preserve"
   width="53.333332"
   height="53.333332"
   viewBox="0 0 53.333332 53.333332"
   sodipodi:docname="icon test for app-19.svg"
   inkscape:version="0.92.1 r15371"><metadata
     id="metadata3686"><rdf:RDF><cc:Work
         rdf:about=""><dc:format>image/svg+xml</dc:format><dc:type
           rdf:resource="http://purl.org/dc/dcmitype/StillImage" /><dc:title></dc:title></cc:Work></rdf:RDF></metadata><defs
     id="defs3684" /><sodipodi:namedview
     pagecolor="#ffffff"
     bordercolor="#666666"
     borderopacity="1"
     objecttolerance="10"
     gridtolerance="10"
     guidetolerance="10"
     inkscape:pageopacity="0"
     inkscape:pageshadow="2"
     inkscape:window-width="1920"
     inkscape:window-height="1003"
     id="namedview3682"
     showgrid="false"
     inkscape:zoom="15.1875"
     inkscape:cx="26.666666"
     inkscape:cy="31.934156"
     inkscape:window-x="-9"
     inkscape:window-y="-9"
     inkscape:window-maximized="1"
     inkscape:current-layer="g3688" /><g
     id="g3688"
     inkscape:groupmode="layer"
     inkscape:label="ink_ext_XXXXXX"
     transform="matrix(1.3333333,0,0,-1.3333333,0,53.333333)"><g
       id="g3690"
       transform="scale(0.1)"><path
         d="m 200.02,400.547 -2.461,-0.742 -181.0356,-84.649 c -1.4648,-0.976 -2.4492,-2.449 -2.4492,-4.402 V 98.418 c 0,-1.9649 0.9844,-3.4297 2.4492,-4.4141 L 197.559,-0.4375 c 0.488,-0.480469 1.464,-0.480469 2.461,-0.480469 0.964,0 1.945,0 2.429,0.480469 l 181.035,94.4414 c 1.465,0.9844 2.434,2.4492 2.434,4.4141 v 212.336 c 0,1.953 -0.969,3.426 -2.434,4.402 l -181.035,84.649 -2.429,0.742"
         style="fill:#f79010;fill-opacity:1;fill-rule:nonzero;stroke:none"
         id="path3692"
         inkscape:connector-curvature="0" /><path
         d="M 137.395,262.422 262.617,137.219"
         style="fill:#ffffff;fill-opacity:1;fill-rule:nonzero;stroke:none"
         id="path3694"
         inkscape:connector-curvature="0" /><path
         d="m 133.855,258.887 125.223,-125.203 7.074,7.078 -125.222,125.207"
         style="fill:#ffffff;fill-opacity:1;fill-rule:nonzero;stroke:none"
         id="path3696"
         inkscape:connector-curvature="0" /><path
         d="M 254.246,128.848 129.031,254.063 145.762,270.781 270.957,145.574 254.246,128.848"
         style="fill:#ffffff;fill-opacity:1;fill-rule:nonzero;stroke:none"
         id="path3698"
         inkscape:connector-curvature="0" /><path
         d="m 254.246,128.848 3.535,3.547 -121.676,121.675 9.653,9.653 118.125,-118.149 -13.176,-13.191 3.539,-3.535 3.535,3.547 -3.535,-3.547 3.539,-3.528 20.238,20.285 -132.257,132.247 -23.809,-23.77 132.289,-132.305 3.539,3.543 -3.539,3.528"
         style="fill:#ffffff;fill-opacity:1;fill-rule:nonzero;stroke:none"
         id="path3700"
         inkscape:connector-curvature="0" /><path
         d="M 148.105,131.211 131.387,147.93 254.246,270.781 270.957,254.063 148.105,131.211"
         style="fill:#ffffff;fill-opacity:1;fill-rule:nonzero;stroke:none"
         id="path3702"
         inkscape:connector-curvature="0" /><path
         d="m 148.105,131.211 3.536,3.547 -13.18,13.18 115.789,115.785 9.633,-9.641 -119.317,-119.324 3.539,-3.547 3.536,3.547 -3.536,-3.547 3.536,-3.535 126.386,126.387 -23.785,23.796 -129.933,-129.91 23.793,-23.808 3.539,3.535 -3.536,3.535"
         style="fill:#ffffff;fill-opacity:1;fill-rule:nonzero;stroke:none"
         id="path3704"
         inkscape:connector-curvature="0" /></g></g></svg>