<?xml version="1.0" encoding="UTF-8" standalone="no"?>
<!-- Created with Inkscape (http://www.inkscape.org/) -->

<svg
   xmlns:dc="http://purl.org/dc/elements/1.1/"
   xmlns:cc="http://creativecommons.org/ns#"
   xmlns:rdf="http://www.w3.org/1999/02/22-rdf-syntax-ns#"
   xmlns:svg="http://www.w3.org/2000/svg"
   xmlns="http://www.w3.org/2000/svg"
   xmlns:sodipodi="http://sodipodi.sourceforge.net/DTD/sodipodi-0.dtd"
   xmlns:inkscape="http://www.inkscape.org/namespaces/inkscape"
   version="1.1"
   id="svg3740"
   xml:space="preserve"
   width="53.333332"
   height="53.333332"
   viewBox="0 0 53.333332 53.333332"
   sodipodi:docname="icon test for app-20.svg"
   inkscape:version="0.92.1 r15371"><metadata
     id="metadata3746"><rdf:RDF><cc:Work
         rdf:about=""><dc:format>image/svg+xml</dc:format><dc:type
           rdf:resource="http://purl.org/dc/dcmitype/StillImage" /><dc:title></dc:title></cc:Work></rdf:RDF></metadata><defs
     id="defs3744" /><sodipodi:namedview
     pagecolor="#ffffff"
     bordercolor="#666666"
     borderopacity="1"
     objecttolerance="10"
     gridtolerance="10"
     guidetolerance="10"
     inkscape:pageopacity="0"
     inkscape:pageshadow="2"
     inkscape:window-width="1920"
     inkscape:window-height="1003"
     id="namedview3742"
     showgrid="false"
     inkscape:zoom="15.1875"
     inkscape:cx="26.666666"
     inkscape:cy="26.666666"
     inkscape:window-x="-9"
     inkscape:window-y="-9"
     inkscape:window-maximized="1"
     inkscape:current-layer="g3748" /><g
     id="g3748"
     inkscape:groupmode="layer"
     inkscape:label="ink_ext_XXXXXX"
     transform="matrix(1.3333333,0,0,-1.3333333,0,53.333333)"><g
       id="g3750"
       transform="scale(0.1)"><path
         d="m 200.02,400.527 -2.454,-0.722 -180.3785,-84.344 c -1.4648,-0.996 -2.4531,-2.453 -2.4531,-4.387 V 99.5039 c 0,-1.9648 0.9883,-3.4297 2.4531,-4.3984 L 197.566,1.01563 c 0.481,-0.507817 1.465,-0.507817 2.454,-0.507817 0.964,0 1.933,0 2.421,0.507817 L 382.82,95.1055 c 1.457,0.9687 2.434,2.4336 2.434,4.3984 V 311.074 c 0,1.934 -0.977,3.391 -2.434,4.387 l -180.379,84.344 -2.421,0.722"
         style="fill:#454aa7;fill-opacity:1;fill-rule:nonzero;stroke:none"
         id="path3752"
         inkscape:connector-curvature="0" /><path
         d="m 94.4531,188.438 h 186.074 v 23.125 H 94.4531 Z"
         style="fill:#ffffff;fill-opacity:1;fill-rule:nonzero;stroke:none"
         id="path3754"
         inkscape:connector-curvature="0" /><path
         d="m 280.527,188.438 v 5.007 H 99.4492 V 206.57 H 275.523 l 0.004,-18.132 h 5 v 5.007 -5.007 h 4.996 V 216.57 H 89.4531 V 183.438 H 285.523 v 5 h -4.996"
         style="fill:#ffffff;fill-opacity:1;fill-rule:nonzero;stroke:none"
         id="path3756"
         inkscape:connector-curvature="0" /><path
         d="m 203.945,105.496 -15.761,16.945 83.457,77.547 -83.457,77.578 15.761,16.938 101.621,-94.516 -101.621,-94.492"
         style="fill:#ffffff;fill-opacity:1;fill-rule:nonzero;stroke:none"
         id="path3758"
         inkscape:connector-curvature="0" /><path
         d="m 203.945,105.496 3.66,3.41 -12.347,13.282 83.734,77.824 -83.738,77.832 8.945,9.605 94.028,-87.449 -97.688,-90.84 3.406,-3.664 3.66,3.41 -3.66,-3.41 3.403,-3.648 105.55,98.164 -109.207,101.562 -22.574,-24.25 83.172,-77.324 -83.18,-77.273 22.575,-24.2895 3.664,3.4105 -3.403,3.648"
         style="fill:#ffffff;fill-opacity:1;fill-rule:nonzero;stroke:none"
         id="path3760"
         inkscape:connector-curvature="0" /></g></g></svg>